# xmcd
#
# Track frame offsets:
#	150
#	12605
#	24085
#	37203
#	49807
#	58900
#	68306
#	80055
#	90055
#	99592
#	109698
#	122966
#	134288
#	144960
#	156751
#	171760
#	182752
#	196797
#	207248
#
# Disc length: 3563 seconds
#
# Revision: 1
# Processed by: cddbd v1.5.2PL0 Copyright (c) Steve Scherf et al.
# Submitted via: audiograbber 1.83.01
#
DISCID=fc0de913
DTITLE=Various Artist - Vintage County
DYEAR=1900
DGENRE=Country
TTITLE0=Eddy Arnold - The Cattle Call
TTITLE1=Patsy Cline - Walkin' After Midnight
TTITLE2=Bob Wills and his Texas Playboys - Faded Love
TTITLE3=Hank Williams - I'm So Lonesome I Could Cry
TTITLE4=Sons of the Pioneers - Cool Water
TTITLE5=Ernest Tubb - Walking the Floor Over You
TTITLE6=Johnny Cash - Ring of Fire
TTITLE7=Merle Haggard - Mama Tried
TTITLE8=George Jones - The Race Is On
TTITLE9=Conway Twitty - It's Only Make Believe
TTITLE10=Lynn Anderson - Rose Garden
TTITLE11=Don Gibson - Oh Lonesome Me
TTITLE12=Waylon Jennings - Only Daddy That'll Walk the Line
TTITLE13=Tammy Wynette - I Don't Wanna Play House
TTITLE14=Marty Robbins - I Walk Alone
TTITLE15=Buck Owens - My Heart Skips a Beat
TTITLE16=Loretta Lynn - She's Got You
TTITLE17=Willie Nelson - Blue Eyes Crying in the Rain
TTITLE18=Bill Anderson - Interview with Willy Nelson
EXTD=
EXTT0=
EXTT1=
EXTT2=
EXTT3=
EXTT4=
EXTT5=
EXTT6=
EXTT7=
EXTT8=
EXTT9=
EXTT10=
EXTT11=
EXTT12=
EXTT13=
EXTT14=
EXTT15=
EXTT16=
EXTT17=
EXTT18=
PLAYORDER=
